<?xml version="1.0" standalone="no"?>
<!DOCTYPE svg PUBLIC "-//W3C//DTD SVG 20010904//EN"
 "http://www.w3.org/TR/2001/REC-SVG-20010904/DTD/svg10.dtd">
<svg version="1.0" xmlns="http://www.w3.org/2000/svg"
 width="1024.000000pt" height="1024.000000pt" viewBox="0 0 1024.000000 1024.000000"
 preserveAspectRatio="xMidYMid meet">

<g transform="translate(0.000000,1024.000000) scale(0.100000,-0.100000)"
fill="#000000" stroke="none">
<path d="M4815 8973 c-302 -25 -592 -88 -840 -183 -128 -49 -351 -163 -465
-238 -204 -133 -426 -335 -581 -527 -216 -268 -371 -612 -443 -983 -32 -167
-38 -209 -86 -661 -79 -747 -156 -1197 -295 -1731 -115 -440 -142 -591 -132
-741 19 -258 156 -425 422 -509 l71 -23 -43 -196 c-66 -305 -72 -436 -23 -581
81 -244 294 -403 555 -417 104 -6 164 3 325 47 49 14 89 19 114 15 51 -8 134
-52 216 -116 36 -27 104 -76 151 -108 158 -106 377 -157 572 -133 126 16 203
40 387 124 251 114 294 114 565 -2 279 -119 349 -135 549 -127 211 8 328 54
556 222 184 136 238 149 405 101 225 -64 368 -58 540 25 100 48 229 177 278
279 59 122 70 182 64 350 -5 118 -13 178 -45 320 l-38 175 23 29 c13 15 29 47
35 70 10 39 14 42 69 60 197 62 394 258 474 470 102 271 61 525 -112 686 -35
33 -68 60 -73 60 -18 0 -11 36 60 331 39 161 70 307 70 325 0 19 -8 42 -18 52
-9 9 -94 61 -187 115 l-170 99 -49 491 c-77 784 -105 962 -191 1225 -153 463
-467 863 -907 1156 -455 301 -1016 460 -1603 454 -88 -1 -178 -3 -200 -5z
m545 -218 c403 -49 752 -165 1060 -351 475 -287 803 -703 940 -1191 63 -224
93 -445 165 -1222 21 -225 24 -207 -32 -174 -50 28 -725 434 -827 497 -35 21
-73 36 -91 36 -22 0 -108 -47 -310 -171 -154 -94 -287 -179 -296 -189 -9 -10
-32 -76 -52 -147 -395 -1408 -487 -1742 -487 -1779 0 -53 28 -88 107 -136 32
-19 211 -129 398 -243 837 -513 1028 -625 1065 -625 25 0 88 28 222 99 l187
98 11 -51 c53 -245 64 -430 31 -535 -36 -117 -108 -205 -211 -258 -52 -26 -63
-28 -180 -28 -109 0 -136 4 -214 28 -116 37 -203 44 -283 23 -89 -22 -141 -51
-283 -156 -197 -146 -330 -200 -495 -200 -118 0 -208 27 -420 123 -198 90
-295 114 -419 104 -99 -9 -159 -29 -326 -107 -201 -95 -238 -105 -390 -104
-193 0 -273 33 -503 206 -67 50 -151 105 -187 122 -60 29 -73 31 -170 31 -85
0 -122 -6 -195 -28 -121 -37 -212 -44 -295 -23 -115 30 -199 96 -250 196 -66
133 -65 247 5 570 90 415 298 1648 312 1852 6 76 5 77 -26 109 -28 28 -37 31
-72 26 -50 -7 -76 -29 -89 -76 -5 -20 -54 -313 -110 -651 -113 -697 -139 -840
-150 -840 -4 0 -33 9 -65 20 -117 40 -187 98 -227 185 -17 40 -23 73 -26 160
-4 130 10 208 99 545 171 648 233 1012 334 1945 20 182 43 374 51 428 99 669
440 1186 1014 1537 303 185 693 310 1100 353 102 11 467 6 580 -8z m1533
-2838 c171 -101 457 -268 635 -372 290 -170 343 -205 313 -205 -5 0 -77 -38
-159 -83 l-149 -84 -469 284 c-258 156 -538 325 -621 376 -84 51 -153 94 -153
97 1 8 264 168 278 169 7 1 153 -81 325 -182z m-558 -271 c110 -65 205 -123
210 -128 16 -17 -28 8 -226 127 l-187 111 -17 -63 c-10 -35 -19 -62 -21 -60
-6 6 30 138 36 135 3 -2 95 -56 205 -122z m-249 -62 c-4 -14 -9 -24 -12 -21
-3 2 -2 17 2 31 3 15 9 25 11 22 3 -3 2 -17 -1 -32z m-37 -118 c-12 -42 -24
-74 -26 -72 -2 2 6 38 18 80 12 42 24 74 26 72 2 -2 -6 -38 -18 -80z m571 8
c0 -2 -13 2 -30 11 -16 9 -30 18 -30 21 0 2 14 -2 30 -11 17 -9 30 -18 30 -21z
m400 -237 c190 -113 353 -212 363 -219 18 -13 18 -16 1 -83 -10 -38 -19 -64
-22 -57 -2 6 4 37 13 68 9 31 15 57 13 59 -7 6 -160 98 -450 272 -170 101
-308 186 -308 189 0 4 10 0 23 -8 12 -8 177 -107 367 -221z m-1010 93 c-6 -23
-13 -40 -15 -38 -2 2 1 23 7 46 6 24 13 41 15 38 2 -2 -1 -23 -7 -46z m-23
-72 c-3 -8 -6 -5 -6 6 -1 11 2 17 5 13 3 -3 4 -12 1 -19z m-13 -52 c-3 -15 -8
-25 -11 -23 -2 3 -1 17 3 31 3 15 8 25 11 23 2 -3 1 -17 -3 -31z m-20 -70 c-3
-15 -8 -25 -11 -23 -2 3 -1 17 3 31 3 15 8 25 11 23 2 -3 1 -17 -3 -31z m1872
-132 c-13 -54 -25 -93 -25 -86 -1 7 6 45 15 83 9 39 14 72 12 74 -2 2 -51 -23
-108 -56 -58 -33 -100 -55 -94 -49 12 12 217 137 222 135 1 -1 -9 -46 -22
-101z m-1889 74 c-3 -8 -6 -5 -6 6 -1 11 2 17 5 13 3 -3 4 -12 1 -19z m-38
-137 c-18 -61 -34 -109 -36 -107 -2 2 10 54 28 115 18 61 34 109 36 107 2 -2
-10 -54 -28 -115z m1718 -13 c-3 -8 -6 -5 -6 6 -1 11 2 17 5 13 3 -3 4 -12 1
-19z m-19 -76 c-6 -29 -13 -50 -16 -47 -2 2 1 27 8 55 7 28 14 49 16 47 3 -2
-1 -27 -8 -55z m199 26 c-3 -8 -6 -5 -6 6 -1 11 2 17 5 13 3 -3 4 -12 1 -19z
m-440 -40 c-3 -8 -6 -5 -6 6 -1 11 2 17 5 13 3 -3 4 -12 1 -19z m430 0 c-3 -8
-6 -5 -6 6 -1 11 2 17 5 13 3 -3 4 -12 1 -19z m-1953 -122 c-15 -53 -29 -94
-31 -92 -3 2 8 48 23 100 15 53 29 94 31 92 3 -2 -8 -48 -23 -100z m1511 64
c-9 -41 -17 -33 -9 9 4 17 9 30 11 27 3 -2 2 -19 -2 -36z m435 25 c0 -11 -10
-15 -32 -14 -31 2 -31 2 -5 6 15 2 27 9 27 14 0 5 2 9 5 9 3 0 5 -7 5 -15z
m-135 -34 c-33 -9 -66 -20 -73 -25 -6 -4 -12 -3 -12 2 0 10 93 40 125 40 11 1
-7 -7 -40 -17z m-335 -131 c-17 -65 -30 -94 -69 -143 -27 -34 -67 -96 -90
-137 -22 -41 -41 -70 -41 -65 0 19 90 168 130 216 31 37 43 64 61 138 13 51
25 88 27 83 1 -5 -6 -47 -18 -92z m-1516 -64 c-3 -15 -8 -25 -11 -23 -2 3 -1
17 3 31 3 15 8 25 11 23 2 -3 1 -17 -3 -31z m2107 -28 c90 -53 130 -127 137
-253 12 -216 -134 -467 -324 -557 -60 -29 -79 -33 -149 -33 -67 0 -89 4 -137
28 -92 45 -144 133 -154 259 -18 230 159 488 391 571 72 26 178 19 236 -15z
m-2150 -120 c-28 -99 -56 -177 -48 -133 10 47 70 245 74 241 3 -2 -9 -51 -26
-108z m1344 -197 c-8 -23 -17 -64 -21 -91 -4 -28 -10 -50 -14 -50 -4 0 -3 21
2 48 12 60 39 145 44 139 2 -2 -2 -23 -11 -46z m-1401 5 c-3 -15 -8 -25 -11
-23 -2 3 -1 17 3 31 3 15 8 25 11 23 2 -3 1 -17 -3 -31z m-18 -63 c-4 -16 -9
-35 -12 -44 -3 -11 15 -29 61 -58 36 -23 65 -45 65 -47 0 -6 -11 0 -82 48 -32
21 -58 41 -58 45 0 13 23 83 28 83 2 0 1 -12 -2 -27z m1403 -306 c7 -32 11
-61 8 -63 -9 -9 -37 163 -36 221 2 59 2 59 9 -20 4 -44 13 -106 19 -138z
m-1179 91 l25 -20 -29 17 c-16 10 -44 26 -63 37 -18 11 -33 22 -33 25 0 7 71
-35 100 -59z m160 -96 c165 -105 409 -254 575 -350 88 -51 165 -98 170 -104
13 -14 15 -16 -160 87 -272 160 -693 418 -710 437 -15 16 18 -2 125 -70z
m1014 -106 c-3 -15 -8 -25 -11 -23 -2 3 -1 17 3 31 3 15 8 25 11 23 2 -3 1
-17 -3 -31z m-63 -231 c-27 -99 -50 -174 -50 -166 -1 20 92 366 96 355 1 -5
-19 -90 -46 -189z m374 0 l47 -17 -114 -62 c-62 -34 -114 -59 -116 -56 -1 3 4
25 12 50 14 43 15 44 9 8 -3 -21 -1 -38 3 -38 5 0 47 22 94 48 l85 47 -73 37
-72 36 -11 -44 c-16 -61 -22 -49 -8 13 l12 51 43 -28 c24 -15 64 -35 89 -45z
m-482 -172 c21 -13 42 -21 47 -18 6 4 10 -1 10 -10 0 -9 -3 -14 -7 -12 -33 17
-133 81 -133 84 0 5 34 -13 83 -44z"/>
<path d="M3955 7337 c-99 -48 -166 -153 -187 -295 -43 -296 156 -522 363 -414
62 32 108 87 140 169 20 50 23 76 23 188 0 110 -3 138 -22 186 -60 150 -198
223 -317 166z"/>
<path d="M6005 7331 c-54 -24 -119 -100 -146 -170 -27 -71 -36 -206 -19 -294
34 -180 167 -290 308 -253 78 20 138 80 177 176 23 59 32 223 15 298 -44 200
-192 308 -335 243z"/>
<path d="M4605 6736 c-31 -13 -55 -51 -55 -87 0 -34 37 -95 82 -134 100 -87
257 -135 442 -135 180 0 322 39 426 115 80 59 111 129 85 191 -27 64 -91 72
-157 19 -202 -162 -514 -166 -687 -10 -33 30 -80 56 -99 55 -4 -1 -21 -7 -37
-14z"/>
</g>
</svg>
